<mxfile host="app.diagrams.net" modified="2023-08-02T22:11:18.749Z" agent="Mozilla/5.0 (Windows NT 10.0; Win64; x64) AppleWebKit/537.36 (KHTML, like Gecko) Chrome/115.0.0.0 Safari/537.36" etag="E0b85m0BiCnJiDpWtUvY" version="21.6.6" type="device">
  <diagram name="Page-1" id="jVRTwSANuptriIAOJ5WK">
    <mxGraphModel dx="662" dy="353" grid="1" gridSize="10" guides="1" tooltips="1" connect="1" arrows="1" fold="1" page="1" pageScale="1" pageWidth="850" pageHeight="1100" math="0" shadow="1">
      <root>
        <mxCell id="0" />
        <mxCell id="1" parent="0" />
        <mxCell id="3hl7cFS-K8GNGfFw6mI9-3" value="" style="rounded=0;orthogonalLoop=1;jettySize=auto;html=1;endArrow=none;endFill=0;" parent="1" source="3hl7cFS-K8GNGfFw6mI9-1" target="3hl7cFS-K8GNGfFw6mI9-2" edge="1">
          <mxGeometry relative="1" as="geometry" />
        </mxCell>
        <mxCell id="7mRlxiWVUr4tO_FYAmdJ-11" value="" style="rounded=0;orthogonalLoop=1;jettySize=auto;html=1;endArrow=none;endFill=0;entryX=0;entryY=0.5;entryDx=0;entryDy=0;" parent="1" source="3hl7cFS-K8GNGfFw6mI9-1" target="7mRlxiWVUr4tO_FYAmdJ-9" edge="1">
          <mxGeometry relative="1" as="geometry" />
        </mxCell>
        <mxCell id="DZtyibXecPL0K3rIrzlG-8" style="rounded=0;orthogonalLoop=1;jettySize=auto;html=1;endArrow=none;endFill=0;" parent="1" source="3hl7cFS-K8GNGfFw6mI9-1" target="DZtyibXecPL0K3rIrzlG-9" edge="1">
          <mxGeometry relative="1" as="geometry">
            <mxPoint x="140" y="70" as="targetPoint" />
          </mxGeometry>
        </mxCell>
        <mxCell id="3hl7cFS-K8GNGfFw6mI9-1" value="designers" style="rounded=0;whiteSpace=wrap;html=1;" parent="1" vertex="1">
          <mxGeometry x="30" y="106.4" width="80" height="20" as="geometry" />
        </mxCell>
        <mxCell id="3hl7cFS-K8GNGfFw6mI9-2" value="&lt;u&gt;name&lt;/u&gt;" style="ellipse;whiteSpace=wrap;html=1;rounded=0;" parent="1" vertex="1">
          <mxGeometry y="40" width="80" height="30" as="geometry" />
        </mxCell>
        <mxCell id="7mRlxiWVUr4tO_FYAmdJ-5" style="rounded=0;orthogonalLoop=1;jettySize=auto;html=1;endArrow=none;endFill=0;entryX=0.596;entryY=0.032;entryDx=0;entryDy=0;entryPerimeter=0;" parent="1" source="7mRlxiWVUr4tO_FYAmdJ-4" target="3hl7cFS-K8GNGfFw6mI9-1" edge="1">
          <mxGeometry relative="1" as="geometry">
            <mxPoint x="149.9999999999999" y="160" as="targetPoint" />
          </mxGeometry>
        </mxCell>
        <mxCell id="7mRlxiWVUr4tO_FYAmdJ-4" value="link" style="ellipse;whiteSpace=wrap;html=1;" parent="1" vertex="1">
          <mxGeometry x="70" y="40" width="60" height="30" as="geometry" />
        </mxCell>
        <mxCell id="LDvFnLhQpbpHu-sAu5eW-1" style="rounded=0;orthogonalLoop=1;jettySize=auto;html=1;exitX=0.75;exitY=0;exitDx=0;exitDy=0;endArrow=none;endFill=0;" parent="1" source="7mRlxiWVUr4tO_FYAmdJ-6" target="LDvFnLhQpbpHu-sAu5eW-2" edge="1">
          <mxGeometry relative="1" as="geometry">
            <mxPoint x="470" y="180" as="targetPoint" />
          </mxGeometry>
        </mxCell>
        <mxCell id="DZtyibXecPL0K3rIrzlG-34" value="" style="rounded=0;orthogonalLoop=1;jettySize=auto;html=1;endArrow=none;endFill=0;entryX=0.5;entryY=0;entryDx=0;entryDy=0;" parent="1" source="7mRlxiWVUr4tO_FYAmdJ-6" target="DZtyibXecPL0K3rIrzlG-33" edge="1">
          <mxGeometry relative="1" as="geometry" />
        </mxCell>
        <mxCell id="7mRlxiWVUr4tO_FYAmdJ-6" value="blasters" style="rounded=0;whiteSpace=wrap;html=1;" parent="1" vertex="1">
          <mxGeometry x="355" y="105.61" width="85" height="20" as="geometry" />
        </mxCell>
        <mxCell id="7mRlxiWVUr4tO_FYAmdJ-8" value="" style="rounded=0;orthogonalLoop=1;jettySize=auto;html=1;endArrow=none;endFill=0;exitX=0.5;exitY=1;exitDx=0;exitDy=0;" parent="1" source="7mRlxiWVUr4tO_FYAmdJ-7" target="7mRlxiWVUr4tO_FYAmdJ-6" edge="1">
          <mxGeometry relative="1" as="geometry">
            <mxPoint x="447.4376695296637" y="190.0033982822016" as="sourcePoint" />
          </mxGeometry>
        </mxCell>
        <mxCell id="7mRlxiWVUr4tO_FYAmdJ-7" value="&lt;u&gt;id&lt;/u&gt;" style="ellipse;whiteSpace=wrap;html=1;" parent="1" vertex="1">
          <mxGeometry x="340" y="40" width="50" height="30" as="geometry" />
        </mxCell>
        <mxCell id="7mRlxiWVUr4tO_FYAmdJ-12" style="rounded=0;orthogonalLoop=1;jettySize=auto;html=1;entryX=0;entryY=0.5;entryDx=0;entryDy=0;endArrow=none;endFill=0;exitX=1;exitY=0.5;exitDx=0;exitDy=0;" parent="1" source="7mRlxiWVUr4tO_FYAmdJ-9" target="7mRlxiWVUr4tO_FYAmdJ-6" edge="1">
          <mxGeometry relative="1" as="geometry" />
        </mxCell>
        <mxCell id="7mRlxiWVUr4tO_FYAmdJ-9" value="" style="rhombus;whiteSpace=wrap;html=1;" parent="1" vertex="1">
          <mxGeometry x="200" y="107.19" width="40" height="18.42" as="geometry" />
        </mxCell>
        <mxCell id="7mRlxiWVUr4tO_FYAmdJ-10" style="edgeStyle=orthogonalEdgeStyle;rounded=0;orthogonalLoop=1;jettySize=auto;html=1;exitX=0.5;exitY=1;exitDx=0;exitDy=0;" parent="1" source="7mRlxiWVUr4tO_FYAmdJ-4" target="7mRlxiWVUr4tO_FYAmdJ-4" edge="1">
          <mxGeometry relative="1" as="geometry" />
        </mxCell>
        <mxCell id="7mRlxiWVUr4tO_FYAmdJ-14" value="0..N" style="text;html=1;align=center;verticalAlign=middle;resizable=0;points=[];autosize=1;strokeColor=none;fillColor=none;" parent="1" vertex="1">
          <mxGeometry x="305" y="85.61" width="50" height="30" as="geometry" />
        </mxCell>
        <mxCell id="7mRlxiWVUr4tO_FYAmdJ-15" value="0..N" style="text;html=1;align=center;verticalAlign=middle;resizable=0;points=[];autosize=1;strokeColor=none;fillColor=none;" parent="1" vertex="1">
          <mxGeometry x="110" y="85.61000000000001" width="50" height="30" as="geometry" />
        </mxCell>
        <mxCell id="LDvFnLhQpbpHu-sAu5eW-2" value="name" style="ellipse;whiteSpace=wrap;html=1;" parent="1" vertex="1">
          <mxGeometry x="390" y="30" width="60" height="30" as="geometry" />
        </mxCell>
        <mxCell id="DZtyibXecPL0K3rIrzlG-5" value="" style="rounded=0;orthogonalLoop=1;jettySize=auto;html=1;endArrow=none;endFill=0;" parent="1" source="DZtyibXecPL0K3rIrzlG-3" target="DZtyibXecPL0K3rIrzlG-4" edge="1">
          <mxGeometry relative="1" as="geometry" />
        </mxCell>
        <mxCell id="DZtyibXecPL0K3rIrzlG-3" value="shops" style="whiteSpace=wrap;html=1;" parent="1" vertex="1">
          <mxGeometry x="40" y="200" width="80" height="30" as="geometry" />
        </mxCell>
        <mxCell id="DZtyibXecPL0K3rIrzlG-4" value="&lt;u&gt;name&lt;/u&gt;" style="ellipse;whiteSpace=wrap;html=1;" parent="1" vertex="1">
          <mxGeometry x="10" y="250" width="60" height="25" as="geometry" />
        </mxCell>
        <mxCell id="DZtyibXecPL0K3rIrzlG-7" style="rounded=0;orthogonalLoop=1;jettySize=auto;html=1;endArrow=none;endFill=0;" parent="1" source="DZtyibXecPL0K3rIrzlG-6" target="DZtyibXecPL0K3rIrzlG-3" edge="1">
          <mxGeometry relative="1" as="geometry" />
        </mxCell>
        <mxCell id="DZtyibXecPL0K3rIrzlG-6" value="link" style="ellipse;whiteSpace=wrap;html=1;" parent="1" vertex="1">
          <mxGeometry x="70" y="250" width="60" height="30" as="geometry" />
        </mxCell>
        <mxCell id="DZtyibXecPL0K3rIrzlG-9" value="description" style="ellipse;whiteSpace=wrap;html=1;" parent="1" vertex="1">
          <mxGeometry x="125" y="40" width="60" height="30" as="geometry" />
        </mxCell>
        <mxCell id="DZtyibXecPL0K3rIrzlG-11" style="rounded=0;orthogonalLoop=1;jettySize=auto;html=1;entryX=0.5;entryY=1;entryDx=0;entryDy=0;endArrow=none;endFill=0;" parent="1" source="DZtyibXecPL0K3rIrzlG-10" target="DZtyibXecPL0K3rIrzlG-3" edge="1">
          <mxGeometry relative="1" as="geometry" />
        </mxCell>
        <mxCell id="DZtyibXecPL0K3rIrzlG-10" value="description" style="ellipse;whiteSpace=wrap;html=1;" parent="1" vertex="1">
          <mxGeometry x="30" y="290" width="60" height="30" as="geometry" />
        </mxCell>
        <mxCell id="DZtyibXecPL0K3rIrzlG-16" value="" style="rounded=0;orthogonalLoop=1;jettySize=auto;html=1;endArrow=none;endFill=0;" parent="1" source="DZtyibXecPL0K3rIrzlG-14" target="DZtyibXecPL0K3rIrzlG-15" edge="1">
          <mxGeometry relative="1" as="geometry" />
        </mxCell>
        <mxCell id="DZtyibXecPL0K3rIrzlG-18" value="" style="rounded=0;orthogonalLoop=1;jettySize=auto;html=1;endArrow=none;endFill=0;" parent="1" source="DZtyibXecPL0K3rIrzlG-14" target="DZtyibXecPL0K3rIrzlG-17" edge="1">
          <mxGeometry relative="1" as="geometry" />
        </mxCell>
        <mxCell id="DZtyibXecPL0K3rIrzlG-14" value="blaster_listings" style="whiteSpace=wrap;html=1;" parent="1" vertex="1">
          <mxGeometry x="190" y="240" width="90" height="30" as="geometry" />
        </mxCell>
        <mxCell id="DZtyibXecPL0K3rIrzlG-15" value="&lt;u&gt;id&lt;/u&gt;" style="ellipse;whiteSpace=wrap;html=1;" parent="1" vertex="1">
          <mxGeometry x="170" y="280" width="25" height="25" as="geometry" />
        </mxCell>
        <mxCell id="DZtyibXecPL0K3rIrzlG-17" value="price" style="ellipse;whiteSpace=wrap;html=1;" parent="1" vertex="1">
          <mxGeometry x="185" y="305" width="45" height="15" as="geometry" />
        </mxCell>
        <mxCell id="DZtyibXecPL0K3rIrzlG-22" style="rounded=0;orthogonalLoop=1;jettySize=auto;html=1;entryX=0.564;entryY=0.963;entryDx=0;entryDy=0;entryPerimeter=0;endArrow=none;endFill=0;" parent="1" source="DZtyibXecPL0K3rIrzlG-21" target="DZtyibXecPL0K3rIrzlG-14" edge="1">
          <mxGeometry relative="1" as="geometry" />
        </mxCell>
        <mxCell id="DZtyibXecPL0K3rIrzlG-21" value="link" style="ellipse;whiteSpace=wrap;html=1;" parent="1" vertex="1">
          <mxGeometry x="200" y="320" width="80" height="20" as="geometry" />
        </mxCell>
        <mxCell id="DZtyibXecPL0K3rIrzlG-24" style="rounded=0;orthogonalLoop=1;jettySize=auto;html=1;entryX=0.75;entryY=1;entryDx=0;entryDy=0;endArrow=none;endFill=0;" parent="1" source="DZtyibXecPL0K3rIrzlG-23" target="DZtyibXecPL0K3rIrzlG-14" edge="1">
          <mxGeometry relative="1" as="geometry" />
        </mxCell>
        <mxCell id="DZtyibXecPL0K3rIrzlG-23" value="description" style="ellipse;whiteSpace=wrap;html=1;" parent="1" vertex="1">
          <mxGeometry x="265" y="310" width="80" height="20" as="geometry" />
        </mxCell>
        <mxCell id="DZtyibXecPL0K3rIrzlG-29" style="rounded=0;orthogonalLoop=1;jettySize=auto;html=1;entryX=1;entryY=0.5;entryDx=0;entryDy=0;endArrow=none;endFill=0;exitX=0;exitY=0.5;exitDx=0;exitDy=0;" parent="1" source="DZtyibXecPL0K3rIrzlG-27" target="DZtyibXecPL0K3rIrzlG-3" edge="1">
          <mxGeometry relative="1" as="geometry" />
        </mxCell>
        <mxCell id="DZtyibXecPL0K3rIrzlG-30" style="rounded=0;orthogonalLoop=1;jettySize=auto;html=1;exitX=1;exitY=0.5;exitDx=0;exitDy=0;entryX=0.5;entryY=0;entryDx=0;entryDy=0;endArrow=none;endFill=0;" parent="1" source="DZtyibXecPL0K3rIrzlG-27" target="DZtyibXecPL0K3rIrzlG-14" edge="1">
          <mxGeometry relative="1" as="geometry" />
        </mxCell>
        <mxCell id="DZtyibXecPL0K3rIrzlG-27" value="" style="rhombus;whiteSpace=wrap;html=1;" parent="1" vertex="1">
          <mxGeometry x="170" y="190" width="50" height="20" as="geometry" />
        </mxCell>
        <mxCell id="DZtyibXecPL0K3rIrzlG-31" value="0..N" style="text;html=1;align=center;verticalAlign=middle;resizable=0;points=[];autosize=1;strokeColor=none;fillColor=none;" parent="1" vertex="1">
          <mxGeometry x="225" y="218" width="50" height="30" as="geometry" />
        </mxCell>
        <mxCell id="DZtyibXecPL0K3rIrzlG-32" value="1..1" style="text;html=1;align=center;verticalAlign=middle;resizable=0;points=[];autosize=1;strokeColor=none;fillColor=none;" parent="1" vertex="1">
          <mxGeometry x="110" y="178" width="40" height="30" as="geometry" />
        </mxCell>
        <mxCell id="3MKL6M3v6x6dqjtd1o5H-1" style="rounded=0;orthogonalLoop=1;jettySize=auto;html=1;entryX=1;entryY=0.25;entryDx=0;entryDy=0;exitX=0.5;exitY=1;exitDx=0;exitDy=0;endArrow=none;endFill=0;" edge="1" parent="1" source="DZtyibXecPL0K3rIrzlG-33" target="DZtyibXecPL0K3rIrzlG-14">
          <mxGeometry relative="1" as="geometry" />
        </mxCell>
        <mxCell id="DZtyibXecPL0K3rIrzlG-33" value="" style="rhombus;whiteSpace=wrap;html=1;rounded=0;" parent="1" vertex="1">
          <mxGeometry x="310" y="180" width="35" height="20" as="geometry" />
        </mxCell>
        <mxCell id="3MKL6M3v6x6dqjtd1o5H-2" value="0..N" style="text;html=1;align=center;verticalAlign=middle;resizable=0;points=[];autosize=1;strokeColor=none;fillColor=none;" vertex="1" parent="1">
          <mxGeometry x="365" y="128" width="50" height="30" as="geometry" />
        </mxCell>
        <mxCell id="3MKL6M3v6x6dqjtd1o5H-3" value="0..N" style="text;html=1;align=center;verticalAlign=middle;resizable=0;points=[];autosize=1;strokeColor=none;fillColor=none;" vertex="1" parent="1">
          <mxGeometry x="280" y="230" width="50" height="30" as="geometry" />
        </mxCell>
      </root>
    </mxGraphModel>
  </diagram>
</mxfile>
